<?xml version="1.0" encoding="UTF-8"?>
<svg width="149px" height="40px" viewBox="0 0 149 40" version="1.1" xmlns="http://www.w3.org/2000/svg" xmlns:xlink="http://www.w3.org/1999/xlink">
    <!-- Generator: Sketch 51.3 (57544) - http://www.bohemiancoding.com/sketch -->
    <title>freepik</title>
    <desc>Created with Sketch.</desc>
    <defs></defs>
    <g id="Page-1" stroke="none" stroke-width="1" fill="none" fill-rule="evenodd">
        <g id="freepik" transform="translate(0.000000, 0.000000)" fill="#BAC8D3" fill-rule="nonzero">
            <g id="XMLID_3701_">
                <path d="M6.42976744,9.84 C5.4242894,10.88 4.55111112,12.0266667 3.86315246,13.2533333 L2.77829457,12.6933333 C2.61953488,12 1.95803618,11.52 1.24361757,11.6 C0.476279068,11.68 -0.0793798448,12.4 0.0264599483,13.1733333 C0.105839793,13.9466667 0.820258396,14.5066667 1.5875969,14.4 C1.74635659,14.3733333 1.87865633,14.3466667 2.01095607,14.2666667 L3.069354,14.8266667 C2.48723514,16.1333333 2.06387597,17.4933333 1.82573644,18.9066667 L3.57209302,19.2266667 C4.101292,16.16 5.55658916,13.36 7.72630492,11.0933333 L6.42976744,9.84 Z" id="XMLID_3728_"></path>
                <path d="M19.1834625,4.45333332 C18.7865633,4.45333332 18.3896641,4.48 17.9927648,4.48 L17.8340052,3.01333333 C18.2573644,2.66666667 18.5219638,2.10666667 18.442584,1.49333333 C18.3367442,0.56 17.5164858,-0.08 16.5903876,0.0266666667 C15.6642894,0.133333333 15.0292506,0.96 15.1350904,1.89333333 C15.2144703,2.48 15.5849096,2.98666667 16.0876486,3.2 L16.2464083,4.66666668 C14.5794315,4.93333332 12.9918346,5.44 11.4571576,6.18666668 L12.2244961,7.78666668 C14.3942119,6.74666668 16.7491473,6.21333332 19.1834625,6.21333332 C20.3477002,6.21333332 21.485478,6.34666668 22.6232558,6.58666668 L22.9936951,4.85333332 C21.7500775,4.58666668 20.45354,4.45333332 19.1834625,4.45333332 Z" id="XMLID_3727_"></path>
                <path d="M34.5302326,10.4 C35.297571,10.2933333 35.85323,9.6 35.7473902,8.82666668 C35.6415504,8.05333332 34.9535917,7.49333332 34.1862532,7.6 C33.4718346,7.68 32.9426356,8.32 32.9426356,9.01333332 L31.9636176,9.86666668 C30.9845995,8.85333332 29.8997416,7.97333332 28.682584,7.2 L27.7564858,8.69333332 C30.4024806,10.3733333 32.4398966,12.7466667 33.7099742,15.5466667 L35.324031,14.8266667 C34.7419122,13.52 34.0010336,12.32 33.1278553,11.2 L34.0539535,10.3733333 C34.2127132,10.4266667 34.3714729,10.4266667 34.5302326,10.4 Z" id="XMLID_3726_"></path>
                <path d="M17.913385,28.3466667 C17.0137468,28.4 16.1141085,28.4266667 15.2144703,28.4266667 C13.1770543,28.4266667 11.1925581,28.2933333 9.44620156,28 C8.54656332,27.8666667 7.48816536,27.6266667 6.48268732,27.3066667 C8.9170026,31.6533333 13.6268734,34.6133333 18.9982429,34.6133333 C25.6396899,34.6133333 31.222739,30.1333333 32.8367959,24.0533333 C31.249199,25.0933333 29.3440827,25.9733333 27.121447,26.6933333 C24.3960724,27.6 21.2208786,28.16 17.913385,28.3466667 Z" id="XMLID_3725_"></path>
                <path d="M19.1834625,8 C11.4042377,8 5.05385012,14.24 5.05385012,21.92 C5.05385012,22.9066667 5.15968992,23.92 5.37136952,24.88 C6.93250644,26 11.6688372,26.96 17.8075452,26.5866667 C24.5019122,26.1866667 30.1114212,24.3466667 33.3130749,21.52 C33.3130749,21.0666667 33.260155,20.6133333 33.2072352,20.16 C32.3075969,13.2266667 26.3011886,8 19.1834625,8 Z M14.1560724,23.2533333 C11.774677,23.2533333 9.86956072,21.3066667 9.86956072,18.9333333 C9.86956072,16.5333333 11.801137,14.6133333 14.1560724,14.6133333 C16.5374677,14.6133333 18.442584,16.56 18.442584,18.9333333 C18.4690439,21.3066667 16.5374677,23.2533333 14.1560724,23.2533333 Z M25.1634108,21.12 C23.4170543,21.12 22.014677,19.68 22.014677,17.9466667 C22.014677,16.1866667 23.4435142,14.7733333 25.1634108,14.7733333 C26.9097674,14.7733333 28.3121447,16.2133333 28.3121447,17.9466667 C28.3386046,19.7066667 26.9097674,21.12 25.1634108,21.12 Z" id="XMLID_3702_"></path>
            </g>
            <path d="M56.35969,12.3733333 C55.6717312,12.1066667 54.4810336,11.6533333 53.158036,11.8133333 C51.8879588,11.9733333 51.2,12.6133333 51.2,14.16 L51.2,16.1866667 L56.38615,16.1866667 L56.38615,20.2133333 L51.2,20.2133333 L51.2,32.9866667 L46.7018088,32.9866667 L46.7018088,20.2133333 L43.5795348,20.2133333 L43.5795348,16.2133333 L46.7018088,16.2133333 L46.7018088,14.1333333 C46.7018088,10.1866667 48.7921448,7.62666668 52.6817572,7.62666668 C54.1635144,7.62666668 55.380672,7.92 56.38615,8.34666668 L56.35969,12.3733333 Z" id="XMLID_3699_"></path>
            <path d="M67.3141084,20.1866667 C66.8907492,20.1066667 66.49385,20.08 66.0969508,20.08 C64.0066148,20.08 62.5777776,21.36 62.5777776,23.8666667 L62.5777776,33.0133333 L58.0795864,33.0133333 L58.0795864,16.2133333 L62.419018,16.2133333 L62.419018,18.0533333 C63.477416,16.48 65.0650128,15.76 67.1024288,15.76 C68.0549872,15.76 69.0604652,16.0533333 69.642584,16.56 L67.3141084,20.1866667 Z" id="XMLID_3697_"></path>
            <path d="M85.1216536,24.5866667 C85.1216536,25.0933333 85.0951936,25.7333333 85.042274,26.1066667 L73.2146772,26.1066667 C73.690956,28.5333333 75.3843928,29.6 77.5011888,29.6 C78.9564856,29.6 80.5176228,29.0133333 81.7083204,28 L84.3278552,30.9066667 C82.4227392,32.6666667 80.0148836,33.4666667 77.2365892,33.4666667 C72.1298192,33.4666667 68.584186,29.9733333 68.584186,24.6666667 C68.584186,19.3866667 72.0239792,15.7866667 77.0249096,15.7866667 C81.8141604,15.76 85.0951936,19.3333333 85.1216536,24.5866667 Z M73.2411368,23.0133333 L80.6234624,23.0133333 C80.2001032,20.8533333 78.930026,19.6533333 76.9984496,19.6533333 C74.8551936,19.6533333 73.638036,20.9333333 73.2411368,23.0133333 Z" id="XMLID_3694_"></path>
            <path d="M102.902739,24.5866667 C102.902739,25.0933333 102.876279,25.7333333 102.823359,26.1066667 L90.9957624,26.1066667 C91.4720412,28.5333333 93.165478,29.6 95.282274,29.6 C96.7375712,29.6 98.298708,29.0133333 99.4894056,28 L102.10894,30.9066667 C100.203824,32.6666667 97.7959688,33.4666667 95.0176744,33.4666667 C89.9109044,33.4666667 86.3652712,29.9733333 86.3652712,24.6666667 C86.3652712,19.3866667 89.8050644,15.7866667 94.8059948,15.7866667 C99.5952456,15.76 102.876279,19.3333333 102.902739,24.5866667 Z M91.0222224,23.0133333 L98.404548,23.0133333 C97.9811888,20.8533333 96.7111112,19.6533333 94.7795348,19.6533333 C92.6627392,19.6533333 91.4191216,20.9333333 91.0222224,23.0133333 Z" id="XMLID_3682_"></path>
            <path d="M122.297881,24.5866667 C122.297881,29.6266667 118.831628,33.44 114.227597,33.44 C111.978501,33.44 110.417364,32.56 109.332506,31.2533333 L109.332506,39.9466667 L104.860775,39.9466667 L104.860775,16.2133333 L109.253127,16.2133333 L109.253127,18.08 C110.337984,16.72 111.925581,15.7866667 114.227597,15.7866667 C118.831628,15.76 122.297881,19.5466667 122.297881,24.5866667 Z M109.094367,24.5866667 C109.094367,27.2266667 110.840724,29.2266667 113.380878,29.2266667 C116.026873,29.2266667 117.69385,27.1733333 117.69385,24.5866667 C117.69385,22 116.053333,19.9466667 113.380878,19.9466667 C110.840724,19.9733333 109.094367,21.9466667 109.094367,24.5866667 Z" id="XMLID_3679_"></path>
            <path d="M129.521447,10.6933333 C129.521447,12.32 128.27783,13.5733333 126.637313,13.5733333 C125.023256,13.5733333 123.779638,12.32 123.779638,10.6933333 C123.779638,9.06666668 125.023256,7.78666668 126.637313,7.78666668 C128.25137,7.78666668 129.521447,9.06666668 129.521447,10.6933333 Z M128.912868,32.9866667 L124.414677,32.9866667 L124.414677,16.1866667 L128.912868,16.1866667 L128.912868,32.9866667 Z" id="XMLID_3648_"></path>
            <polygon id="XMLID_3583_" points="136.401034 22.1866667 142.672041 16.2133333 148.17571 16.2133333 140.078966 24.1066667 148.20217 32.9866667 142.672041 32.9866667 136.348114 26.1866667 136.348114 32.9866667 131.849922 32.9866667 131.849922 8.02666668 136.348114 8.02666668 136.348114 22.1866667"></polygon>
        </g>
    </g>
</svg>