<?xml version="1.0" encoding="utf-8"?>
<!-- Generator: Adobe Illustrator 24.0.1, SVG Export Plug-In . SVG Version: 6.00 Build 0)  -->
<svg version="1.1" id="Capa_2" xmlns="http://www.w3.org/2000/svg" xmlns:xlink="http://www.w3.org/1999/xlink" x="0px" y="0px"
	 viewBox="0 0 42 20" style="enable-background:new 0 0 42 20;" xml:space="preserve">
<g>
	<g>
		<path d="M3.1,15H1.3v-7h1.9V15z M4.9,12.3c0.6,0.6,1.5,1.1,2.4,1.1c0.9,0,1.5-0.5,1.5-1.3c0-1.3-1.9-1.5-3.2-2.2
			C4.7,9.5,4.1,8.8,4.1,7.7c0-1.8,1.7-2.8,3.3-2.8c1,0,2,0.2,2.9,0.9l-1,1.4C8.9,6.8,8.3,6.5,7.6,6.5c-0.7,0-1.6,0.3-1.6,1.1
			c0,1.6,4.6,1.1,4.6,4.5c0,1.8-1.6,3-3.4,3c-1.4,0-2.6-0.6-3.6-1.5L4.9,12.3z M16.5,15c-0.2,0.1-0.8,0.1-1.2,0.1
			c-1.1,0-1.9-0.4-2.4-1c-0.4-0.5-0.5-1.1-0.5-2.1V9.6h-1.9V8.1h1.9V6.1h1.9v1.9h2.3v1.6h-2.3v2.7c0,0.4,0.1,0.7,0.2,0.9
			c0.2,0.2,0.5,0.3,0.9,0.3c0.3,0,0.6,0,0.8-0.1L16.5,15z M20.7,7.9c2.1,0,3.7,1.6,3.7,3.6c0,2-1.6,3.6-3.7,3.6
			c-2.1,0-3.7-1.6-3.7-3.6C16.9,9.5,18.5,7.9,20.7,7.9z M20.7,13.5c1.1,0,1.8-0.8,1.8-1.9c0-1.1-0.7-1.9-1.8-1.9s-1.8,0.9-1.8,1.9
			C18.8,12.6,19.6,13.5,20.7,13.5z M31.8,13.6c-0.8,1.1-1.9,1.6-3.2,1.6c-2.2,0-3.7-1.6-3.7-3.6c0-2,1.6-3.6,3.8-3.6
			c1.2,0,2.3,0.6,2.9,1.4l-1.3,1.2c-0.4-0.5-0.9-0.8-1.6-0.8c-1.1,0-1.9,0.8-1.9,1.9c0,1.1,0.8,1.9,1.9,1.9c0.8,0,1.4-0.5,1.7-0.9
			L31.8,13.6z M36,11.2l3.8,3.8h-2.5l-2.9-3v3h-1.9V5h1.9v5.4l2.4-2.3h2.6L36,11.2z M1,6c0-0.7,0.5-1.2,1.2-1.2
			c0.7,0,1.2,0.5,1.2,1.2c0,0.7-0.5,1.2-1.2,1.2C1.5,7.3,1,6.7,1,6z"/>
	</g>
</g>
<path d="M40,5.5v0.2h-0.3v1h-0.2v-1h-0.3V5.5H40z"/>
<path d="M40.8,6.3l0.5-0.8h0.2v1.3h-0.2V6.1l-0.3,0.5h-0.2l-0.3-0.5v0.7h-0.2V5.5h0.2L40.8,6.3z"/>
</svg>
